<svg xmlns="http://www.w3.org/2000/svg" viewBox="0 0 512 512" width="64" height="64">
  <path d="M256 0L30.912 64.225v112.844c0 144.956 86.134 275.508 219.086 332.529L256 512l6.002-2.402c132.952-57.021 219.086-187.573 219.086-332.529V64.225L256 0z" fill="#d3d3d8"/>
  <path d="M481.088 64.225v112.844c0 144.956-86.134 275.508-219.086 332.529L256 512V0l225.088 64.225z" fill="#e7e7e7"/>
  <path d="M256 62.425L90.936 109.544v67.526c0 111.042 60.625 212.482 157.862 265.303l7.203 3.902 7.203-3.902c97.238-52.821 157.862-154.26 157.862-265.303v-67.526L256 62.425z" fill="#e90144"/>
  <g fill="#bbb" opacity=".75">
    <path d="M213.22 296.202L144 258.452v-20.909l69.22-37.536v24.558l-48.234 23.17 48.233 24.044v24.423zM225.042 309.413l45.904-122.627h14.502l-46.01 122.627h-14.396zM300.98 296.202v-24.423l48.223-23.85-48.224-23.665v-24.267l69.22 37.585v20.782l-69.22 37.838z"/>
  </g>
  <path fill="#fff" opacity=".25" d="M421.064 109.544v67.526c0 111.042-60.625 212.482-157.862 265.303L256 446.274V62.425l165.064 47.119z"/>
</svg>
