<svg version="1.1" id="Capa_1" xmlns="http://www.w3.org/2000/svg" xmlns:xlink="http://www.w3.org/1999/xlink"
		 x="0px"
		 y="0px"
		 viewBox="0 0 512 512" style="enable-background:new 0 0 512 512;" xml:space="preserve">

	<path style="fill:#D3D3D8;" d="M256,0L30.912,64.225v112.844c0,144.956,86.134,275.508,219.086,332.529L256,512l6.002-2.402
	c132.952-57.021,219.086-187.573,219.086-332.529V64.225L256,0z"/>
	<path style="fill:#E7E7E7;"
				d="M481.088,64.225v112.844c0,144.956-86.134,275.508-219.086,332.529L256,512V0L481.088,64.225z"/>
	<path style="fill:#E90144;" d="M256,62.425L90.936,109.544v67.526c0,111.042,60.625,212.482,157.862,265.303l7.203,3.902
	l7.203-3.902c97.238-52.821,157.862-154.26,157.862-265.303v-67.526L256,62.425z"/>
	<g transform="scale(0.45) translate(320 300)" fill="#bbb" opacity="0.75">
		<path  d="M153.821,358.226L0,274.337v-46.463l153.821-83.414v54.574L46.636,250.523l107.185,53.431
			C153.821,303.954,153.821,358.226,153.821,358.226z"/>
		<path  d="M180.094,387.584L282.103,115.08h32.227L212.084,387.584H180.094z"/>
		<path  d="M348.843,358.226v-54.272l107.164-52.999l-107.164-52.59v-53.927l153.821,83.522v46.183
			L348.843,358.226z"/>
	</g>
	<path fill="#fff" opacity="0.25" d="M421.064,109.544v67.526c0,111.042-60.625,212.482-157.862,265.303L256,446.274V62.425
	L421.064,109.544z"/>

</svg>
